<svg width="27" height="24" viewBox="0 0 27 24" fill="none" xmlns="http://www.w3.org/2000/svg">
<path d="M13.3134 20.1062L7.02455 23.7753C6.74673 23.9465 6.45628 24.0199 6.1532 23.9954C5.85012 23.971 5.58493 23.8731 5.35762 23.7019C5.13031 23.5307 4.95352 23.3166 4.82723 23.0598C4.70095 22.803 4.6757 22.5156 4.75147 22.1976L6.41839 15.2631L0.849342 10.6035C0.596777 10.3833 0.438924 10.1326 0.375783 9.85133C0.312642 9.57004 0.331584 9.29486 0.43261 9.0258C0.533636 8.75674 0.685175 8.53659 0.887226 8.36537C1.08928 8.19415 1.3671 8.08408 1.72069 8.03516L9.07032 7.41143L11.9117 0.880566C12.038 0.587044 12.2337 0.366902 12.4989 0.220141C12.7641 0.0733805 13.0356 0 13.3134 0C13.5912 0 13.8627 0.0733805 14.1279 0.220141C14.3931 0.366902 14.5889 0.587044 14.7151 0.880566L17.5565 7.41143L24.9061 8.03516C25.2597 8.08408 25.5375 8.19415 25.7396 8.36537C25.9416 8.53659 26.0932 8.75674 26.1942 9.0258C26.2952 9.29486 26.3142 9.57004 26.251 9.85133C26.1879 10.1326 26.03 10.3833 25.7775 10.6035L20.2084 15.2631L21.8753 22.1976C21.9511 22.5156 21.9259 22.803 21.7996 23.0598C21.6733 23.3166 21.4965 23.5307 21.2692 23.7019C21.0419 23.8731 20.7767 23.971 20.4736 23.9954C20.1705 24.0199 19.8801 23.9465 19.6023 23.7753L13.3134 20.1062Z" fill="currentcolor"/>
</svg>
