<svg id="linkedin" width="28" height="28" viewBox="0 0 28 28" fill="none" xmlns="http://www.w3.org/2000/svg">
<path d="M0.97674 9.47245H6.60998V27.5396H0.97674V9.47245ZM3.79384 0.494873C5.59485 0.494873 7.05452 1.95431 7.05452 3.74864C7.05452 5.54297 5.59485 7.00736 3.79384 7.00736C1.99284 7.00736 0.528198 5.54594 0.528198 3.74864C0.528198 1.95134 1.98787 0.494873 3.79384 0.494873Z" fill="#32164B"/>
<path d="M10.1385 9.4725H15.5336V11.9435H15.6071C16.3592 10.5217 18.194 9.02466 20.9327 9.02466C26.6264 9.02466 27.6773 12.7639 27.6773 17.6297V27.5386H22.0569V18.7552C22.0569 16.6587 22.0163 13.9638 19.1337 13.9638C16.2064 13.9638 15.7599 16.2456 15.7599 18.6017V27.5386H10.1385V9.4725Z" fill="#32164B"/>
</svg>
