<svg id="mail" width="36" height="30" viewBox="0 0 36 30" fill="none" xmlns="http://www.w3.org/2000/svg">
<path d="M2.91525 13.1862C2.91525 13.1862 18.1224 6.95524 23.3955 4.76093C25.4169 3.88321 32.2731 1.07403 32.2731 1.07403C32.2731 1.07403 35.4379 -0.154554 35.1735 2.82948C35.0853 4.05807 34.3826 8.35869 33.6786 13.0102C32.6233 19.5931 31.481 26.7898 31.481 26.7898C31.481 26.7898 31.3047 28.8081 29.811 29.1601C28.3173 29.5109 25.8553 27.9315 25.4158 27.5806C25.0644 27.3178 18.8229 23.368 16.5383 21.4366C15.9225 20.9097 15.2197 19.8571 16.6264 18.6285C19.7912 15.7325 23.5707 12.1336 25.8564 9.85128C26.9117 8.79755 27.9659 6.34038 23.5707 9.32441C17.3303 13.625 11.177 17.6628 11.177 17.6628C11.177 17.6628 9.77024 18.5405 7.13309 17.7508C4.49593 16.9611 1.41925 15.9073 1.41925 15.9073C1.41925 15.9073 -0.689093 14.5908 2.91525 13.1862Z" fill="#32164B"/>
</svg>
