<svg id="whatsapp" width="29" height="30" viewBox="0 0 29 30" fill="none" xmlns="http://www.w3.org/2000/svg">
<path d="M0.511597 29.2106L2.5495 21.6167C1.39579 19.5385 0.788327 17.2087 0.788327 14.8437C0.788327 7.11322 7.08759 0.823486 14.8297 0.823486C22.5719 0.823486 28.8711 7.11322 28.8711 14.8437C28.8711 22.5741 22.5719 28.8639 14.8297 28.8639C12.5057 28.8639 10.2098 28.278 8.15529 27.1654L0.511597 29.2095V29.2106ZM8.53565 24.3202L9.01667 24.6069C10.784 25.6584 12.7939 26.2142 14.8297 26.2142C21.1082 26.2142 26.2175 21.1137 26.2175 14.8437C26.2175 8.57361 21.1093 3.47414 14.8297 3.47414C8.55019 3.47414 3.44201 8.57464 3.44201 14.8437C3.44201 16.9137 4.01834 18.9526 5.10777 20.7391L5.40316 21.2234L4.26499 25.4628L8.53565 24.3202Z" fill="#32164B"/>
<path fill-rule="evenodd" clip-rule="evenodd" d="M20.053 16.7947C19.4746 16.449 18.723 16.0639 18.042 16.3424C17.5196 16.5556 17.1858 17.3722 16.8479 17.7893C16.6748 18.0035 16.4675 18.0367 16.2 17.9301C14.2389 17.1507 12.7369 15.8435 11.6547 14.0426C11.4712 13.7631 11.5044 13.5416 11.7252 13.2829C12.0517 12.8989 12.4622 12.4621 12.5513 11.9446C12.6394 11.4271 12.3968 10.8216 12.1823 10.36C11.9086 9.7711 11.6018 8.93068 11.0109 8.5974C10.4667 8.29104 9.75156 8.46285 9.26748 8.85616C8.43201 9.53512 8.02873 10.6001 8.04117 11.6558C8.04428 11.956 8.08162 12.2551 8.15107 12.5439C8.32003 13.2404 8.6424 13.8894 9.00416 14.5083C9.27782 14.9741 9.57429 15.4264 9.89459 15.8611C10.9436 17.2832 12.2476 18.52 13.7589 19.4443C14.5135 19.9059 15.3272 20.3106 16.1689 20.5879C17.1132 20.8995 17.9549 21.2234 18.9739 21.0299C20.0415 20.8281 21.0937 20.1677 21.5177 19.141C21.6431 18.8367 21.7052 18.4983 21.6358 18.1774C21.4907 17.5129 20.5909 17.1186 20.053 16.7978V16.7947Z" fill="#32164B"/>
</svg>
